<svg width="107" height="46" viewBox="0 0 107 46" fill="none" xmlns="http://www.w3.org/2000/svg">
<g clip-path="url(#clip0_1_101)">
<path d="M96.6481 45.7676V44.5552C97.2367 44.5552 97.672 44.4489 97.954 44.2362C98.2483 44.0022 98.4384 43.5556 98.5242 42.8963C98.6223 42.2369 98.6713 41.2585 98.6713 39.9611V36.0689L94.9927 25.1579C94.7475 24.4135 94.5206 23.8498 94.3122 23.467C94.1037 23.0629 93.883 22.7864 93.65 22.6375C93.4293 22.4886 93.1473 22.4142 92.804 22.4142V21.2018H98.5978V22.4142C97.9969 22.4142 97.5678 22.4992 97.3103 22.6694C97.0528 22.8183 96.924 23.0948 96.924 23.4989C96.924 23.7116 96.9547 23.9774 97.016 24.2965C97.0895 24.6155 97.1999 24.9877 97.347 25.4131L100.198 33.8675H100.272L102.35 27.8059C102.742 26.6786 103.018 25.7853 103.178 25.126C103.349 24.4454 103.435 23.903 103.435 23.4989C103.435 23.0948 103.343 22.8183 103.159 22.6694C102.988 22.4992 102.681 22.4142 102.24 22.4142V21.2018H106.452V22.4142C106.194 22.4142 105.961 22.4886 105.753 22.6375C105.544 22.7651 105.33 23.0203 105.109 23.4032C104.9 23.7647 104.661 24.2858 104.392 24.9664C104.134 25.6471 103.815 26.5404 103.435 27.6463L100.603 35.9413V39.7378C100.603 41.1203 100.646 42.1625 100.731 42.8644C100.829 43.545 101.02 44.0022 101.302 44.2362C101.584 44.4489 102.019 44.5552 102.607 44.5552V45.7676H96.6481Z" fill="black"/>
<path d="M90.0213 27.3592C90.0213 29.0395 89.7377 30.4539 89.1705 31.6024C88.6033 32.7296 87.6994 33.4847 86.4587 33.8675L90.3757 42.3539C90.6948 43.0558 91.0493 43.5662 91.4392 43.8853C91.8291 44.183 92.284 44.4064 92.804 44.5552V45.7676H89.3832L85.0408 35.7499C84.8399 35.2607 84.6508 34.8991 84.4736 34.6651C84.2963 34.4312 84.0896 34.2823 83.8532 34.2185C83.6287 34.1547 83.3333 34.1228 82.967 34.1228V40.7587C82.967 41.8009 83.0202 42.5985 83.1265 43.1515C83.2447 43.7045 83.4751 44.0767 83.8178 44.2681C84.1723 44.4595 84.704 44.5552 85.413 44.5552V45.7676H79.1563V44.5552C79.7117 44.5127 80.1252 44.4064 80.397 44.2362C80.6806 44.0448 80.8697 43.6938 80.9642 43.1834C81.0587 42.6729 81.106 41.9179 81.106 40.9182V26.0512C81.106 25.0515 81.0646 24.3071 80.9819 23.8179C80.8992 23.3075 80.7279 22.9565 80.4679 22.7651C80.2198 22.5737 79.8417 22.4567 79.3336 22.4142V21.2018H84.899C86.5178 21.2018 87.7762 21.7442 88.6742 22.8289C89.5722 23.9136 90.0213 25.4237 90.0213 27.3592ZM82.967 23.2437V32.5276H84.2254C85.3952 32.5276 86.2696 32.1341 86.8486 31.3472C87.4276 30.5602 87.7171 29.2841 87.7171 27.5187C87.7171 25.8172 87.4867 24.5942 87.0259 23.8498C86.5769 23.0841 85.8679 22.7013 84.899 22.7013H83.2683C83.0675 22.7013 82.967 22.8821 82.967 23.2437Z" fill="black"/>
<path d="M65.5087 45.7676V44.5552C66.0378 44.4489 66.4346 44.2256 66.6992 43.8853C66.9637 43.5237 67.1938 42.8856 67.3893 41.9711L71.8753 21.2018H72.6172L76.5338 39.1954C76.7983 40.3865 77.0284 41.3436 77.2239 42.0668C77.4194 42.7686 77.6092 43.3004 77.7933 43.6619C77.9773 44.0022 78.1729 44.2362 78.3799 44.3638C78.5984 44.4702 78.8573 44.5233 79.1563 44.5233V45.7676H73.5316V44.5233C74.1412 44.5233 74.5611 44.417 74.7911 44.2043C75.0212 43.9916 75.1362 43.6407 75.1362 43.1515C75.1362 42.7261 75.1075 42.3326 75.0499 41.9711C75.0039 41.5882 74.9004 41.0352 74.7394 40.3121L74.032 36.8665H69.4253C69.0342 38.6105 68.7581 39.9611 68.5971 40.9182C68.436 41.8753 68.3555 42.5666 68.3555 42.992C68.3555 43.5875 68.459 44.0022 68.6661 44.2362C68.8846 44.4489 69.2297 44.5552 69.7013 44.5552V45.7676H65.5087ZM69.7703 35.2713H73.7042L71.8235 25.8597H71.7545L69.7703 35.2713Z" fill="black"/>
<path d="M62.726 27.3592C62.726 29.0395 62.4424 30.4539 61.8752 31.6024C61.308 32.7296 60.4041 33.4847 59.1634 33.8675L63.0805 42.3539C63.3995 43.0558 63.754 43.5662 64.1439 43.8853C64.5339 44.183 64.9888 44.4064 65.5087 44.5552V45.7676H62.0879L57.7455 35.7499C57.5446 35.2607 57.3555 34.8991 57.1783 34.6651C57.0011 34.4312 56.7943 34.2823 56.558 34.2185C56.3334 34.1547 56.038 34.1228 55.6717 34.1228V40.7587C55.6717 41.8009 55.7249 42.5985 55.8313 43.1515C55.9494 43.7045 56.1798 44.0767 56.5225 44.2681C56.877 44.4595 57.4087 44.5552 58.1177 44.5552V45.7676H51.861V44.5552C52.4164 44.5127 52.83 44.4064 53.1017 44.2362C53.3853 44.0448 53.5744 43.6938 53.6689 43.1834C53.7634 42.6729 53.8107 41.9179 53.8107 40.9182V26.0512C53.8107 25.0515 53.7693 24.3071 53.6866 23.8179C53.6039 23.3075 53.4326 22.9565 53.1726 22.7651C52.9245 22.5737 52.5464 22.4567 52.0383 22.4142V21.2018H57.6037C59.2225 21.2018 60.4809 21.7442 61.3789 22.8289C62.277 23.9136 62.726 25.4237 62.726 27.3592ZM55.6717 23.2437V32.5276H56.9302C58.1 32.5276 58.9744 32.1341 59.5533 31.3472C60.1323 30.5602 60.4218 29.2841 60.4218 27.5187C60.4218 25.8172 60.1914 24.5942 59.7306 23.8498C59.2816 23.0841 58.5726 22.7013 57.6037 22.7013H55.9731C55.7722 22.7013 55.6717 22.8821 55.6717 23.2437Z" fill="black"/>
<path d="M35.4839 45.7676V44.5552C36.1807 44.5127 36.6965 44.4064 37.0315 44.2362C37.3799 44.0448 37.6077 43.6938 37.7149 43.1834C37.8355 42.6729 37.8958 41.9179 37.8958 40.9182V26.0512C37.8958 25.0515 37.8489 24.3071 37.7551 23.8179C37.6613 23.3075 37.467 22.9565 37.1722 22.7651C36.8908 22.5737 36.4621 22.4567 35.8859 22.4142V21.2018H41.8957C43.7046 21.2018 45.1116 21.7229 46.1166 22.7651C47.1216 23.786 47.624 25.2323 47.624 27.104C47.624 28.4652 47.3359 29.6031 46.7598 30.5177C46.197 31.411 45.326 32.1341 44.1468 32.6871V32.8147C45.0178 32.9211 45.8285 33.2295 46.5789 33.7399C47.3426 34.2291 47.959 34.931 48.428 35.8456C48.897 36.7389 49.1315 37.8555 49.1315 39.1954C49.1315 40.3865 48.9372 41.4819 48.5486 42.4815C48.16 43.4599 47.6508 44.2149 47.0211 44.7467C46.5655 45.1295 46.0094 45.3954 45.3528 45.5443C44.7096 45.6931 43.8319 45.7676 42.7197 45.7676H35.4839ZM42.7599 44.3957C45.1987 44.3957 46.4181 42.7686 46.4181 39.5145C46.4181 38.2809 46.2506 37.2281 45.9156 36.356C45.594 35.4627 45.1451 34.8034 44.5689 34.378C44.1535 34.059 43.651 33.8569 43.0614 33.7718C42.4852 33.6868 41.7684 33.6442 40.9108 33.6442H40.0063V40.7587C40.0063 42.0561 40.2207 42.992 40.6495 43.5662C41.0783 44.1192 41.7818 44.3957 42.7599 44.3957ZM40.0063 32.049H41.1319C42.0028 32.049 42.6393 31.9852 43.0413 31.8576C43.4433 31.7087 43.7515 31.5279 43.9659 31.3153C44.3143 30.975 44.589 30.4645 44.79 29.7839C44.991 29.1033 45.0915 28.2525 45.0915 27.2316C45.0915 25.7002 44.8302 24.5623 44.3076 23.8179C43.7984 23.0735 42.9944 22.7013 41.8957 22.7013H40.348C40.1202 22.7013 40.0063 22.8821 40.0063 23.2437V32.049Z" fill="black"/>
<path d="M24.5658 45.7676V44.5552C25.3577 44.5127 25.9474 44.3851 26.3349 44.1724C26.7393 43.9597 27.0088 43.5343 27.1436 42.8963C27.2784 42.2582 27.3458 41.2798 27.3458 39.9611V27.0083C27.3458 25.7959 27.2869 24.8707 27.1689 24.2327C27.051 23.5946 26.8067 23.1479 26.436 22.8927C26.0822 22.6162 25.543 22.4567 24.8185 22.4142V21.2018H32.5016V22.4142C31.7771 22.4354 31.2379 22.5843 30.8841 22.8608C30.5303 23.116 30.2944 23.584 30.1764 24.2646C30.0585 24.9452 29.9995 25.9342 29.9995 27.2316V39.7378C29.9995 41.1416 30.0585 42.1837 30.1764 42.8644C30.3112 43.5237 30.5724 43.9597 30.9599 44.1724C31.3643 44.3851 31.9624 44.5127 32.7543 44.5552V45.7676H24.5658Z" fill="black"/>
<path d="M0 45.7676V43.6123C1.0351 43.5367 1.80592 43.3476 2.31246 43.0451C2.84102 42.7048 3.1934 42.0809 3.36958 41.1735C3.54577 40.266 3.63386 38.9237 3.63386 37.1465V10.7162C3.63386 8.93904 3.55678 7.61563 3.40262 6.74596C3.24846 5.83848 2.92912 5.21459 2.4446 4.87428C1.98211 4.53398 1.27736 4.32601 0.330351 4.25039V2.09513H10.373V4.25039C9.42603 4.2882 8.72128 4.49617 8.25878 4.87428C7.79629 5.21459 7.48796 5.85739 7.3338 6.80268C7.17964 7.74797 7.10256 9.18481 7.10256 11.1132V35.5584C7.10256 37.6759 7.26773 39.2829 7.59808 40.3794C7.95046 41.476 8.5561 42.2322 9.41501 42.6481C10.2739 43.0262 11.4632 43.2153 12.9828 43.2153C14.6786 43.2153 16.022 42.9884 17.0131 42.5347C18.0042 42.0809 18.764 41.2302 19.2925 39.9824C19.8431 38.7346 20.2726 36.9386 20.5809 34.5942H21.8362L21.3407 45.7676H0Z" fill="black"/>
<path d="M58.9367 18.267C58.4383 18.267 57.9594 18.1791 57.5 18.0032C57.0407 17.8272 56.635 17.5633 56.2832 17.2115C55.9411 16.8499 55.6674 16.4003 55.4622 15.8627C55.257 15.3252 55.1543 14.6948 55.1543 13.9715C55.1543 13.0919 55.2814 12.31 55.5355 11.6258C55.7896 10.9319 56.1122 10.3504 56.5031 9.88121C56.9038 9.4023 57.3485 9.04067 57.8372 8.79633C58.3259 8.54222 58.8048 8.41516 59.2739 8.41516C59.8799 8.41516 60.3588 8.61552 60.7107 9.01624C61.0723 9.41696 61.2531 9.93497 61.2531 10.5703C61.2531 11.1176 61.1505 11.616 60.9452 12.0656C60.74 12.5055 60.4663 12.8866 60.1243 13.2092C59.7919 13.5219 59.4059 13.7663 58.9661 13.9422C58.536 14.1181 58.0864 14.2061 57.6173 14.2061C57.3925 14.2061 57.1775 14.1963 56.9722 14.1768C56.7768 14.1474 56.6008 14.1181 56.4445 14.0888C56.5031 14.6948 56.6204 15.2177 56.7963 15.6575C56.9722 16.0973 57.1921 16.4589 57.456 16.7424C57.7199 17.0258 58.0131 17.2359 58.3357 17.3728C58.668 17.5096 59.0101 17.578 59.3619 17.578C59.8017 17.578 60.2073 17.4705 60.5787 17.2555C60.9501 17.0404 61.2922 16.7619 61.605 16.4198C61.9177 16.068 62.2012 15.6672 62.4553 15.2177C62.7192 14.7681 62.9537 14.3136 63.159 13.8542C63.3642 13.3851 63.545 12.9306 63.7014 12.4908C63.8676 12.0412 64.0142 11.6454 64.1412 11.3033L64.713 11.4499C64.5859 11.7724 64.4345 12.1634 64.2585 12.6227C64.0924 13.0821 63.8969 13.5659 63.6721 14.0741C63.4473 14.5726 63.1834 15.0759 62.8804 15.5842C62.5775 16.0826 62.2354 16.5322 61.8542 16.9329C61.473 17.3239 61.0381 17.6464 60.5494 17.9005C60.0705 18.1449 59.5329 18.267 58.9367 18.267ZM59.3033 8.98692C58.9416 8.98692 58.5849 9.1042 58.233 9.33877C57.891 9.56357 57.5831 9.87633 57.3094 10.277C57.0358 10.6778 56.811 11.1518 56.635 11.6991C56.4689 12.2464 56.3858 12.8329 56.3858 13.4584C56.5129 13.5073 56.6888 13.5512 56.9136 13.5903C57.1482 13.6197 57.4316 13.6343 57.7639 13.6343C58.1158 13.6343 58.4627 13.561 58.8048 13.4144C59.1567 13.258 59.4694 13.0479 59.7431 12.784C60.0265 12.5103 60.2513 12.1878 60.4175 11.8164C60.5934 11.445 60.6814 11.0394 60.6814 10.5996C60.6814 10.3846 60.652 10.1793 60.5934 9.98384C60.5347 9.78836 60.4468 9.61732 60.3295 9.47072C60.2122 9.32411 60.0656 9.20683 59.8897 9.11886C59.7235 9.0309 59.5281 8.98692 59.3033 8.98692Z" fill="black"/>
<path d="M38.9837 11.3033C39.2965 10.3846 39.6337 9.7004 39.9953 9.25081C40.3569 8.79144 40.7821 8.56176 41.2708 8.56176C41.4858 8.56176 41.6862 8.61063 41.8719 8.70837C42.0673 8.8061 42.2384 8.96737 42.385 9.19216C42.5316 9.40719 42.644 9.69062 42.7222 10.0425C42.8101 10.3943 42.8541 10.8244 42.8541 11.3326C43.2939 10.2086 43.7386 9.40719 44.1882 8.92827C44.6378 8.44936 45.1265 8.20991 45.6543 8.20991C45.8498 8.20991 46.0452 8.249 46.2407 8.32719C46.446 8.40538 46.6268 8.5471 46.7832 8.75235C46.9493 8.94782 47.0861 9.2166 47.1937 9.55868C47.3012 9.90076 47.3598 10.3308 47.3696 10.8488C47.6335 10.3308 47.9609 9.91053 48.3518 9.588C48.7526 9.26547 49.1924 9.1042 49.6713 9.1042C49.9059 9.1042 50.1404 9.14818 50.375 9.23615C50.6096 9.31434 50.8148 9.45117 50.9907 9.64664C51.1764 9.84212 51.3279 10.1011 51.4452 10.4237C51.5625 10.7364 51.6211 11.1274 51.6211 11.5965C51.6211 11.7333 51.6114 11.9141 51.5918 12.1389C51.5723 12.354 51.5478 12.5934 51.5185 12.8573C51.4892 13.1212 51.4599 13.39 51.4306 13.6636C51.4012 13.9373 51.3719 14.1963 51.3426 14.4406C51.3133 14.6752 51.2888 14.8853 51.2693 15.071C51.2497 15.247 51.24 15.3691 51.24 15.4376C51.24 16.0142 51.3084 16.4345 51.4452 16.6984C51.582 16.9623 51.8313 17.0942 52.1929 17.0942C52.4666 17.0942 52.7451 16.9329 53.0286 16.6104C53.312 16.2781 53.6003 15.8432 53.8935 15.3056C54.1867 14.7681 54.4848 14.1523 54.7878 13.4584C55.0908 12.7645 55.3987 12.0461 55.7114 11.3033L56.2832 11.4499C55.9998 12.1243 55.7065 12.8378 55.4036 13.5903C55.1006 14.3429 54.7683 15.0368 54.4066 15.6721C54.0548 16.3074 53.6736 16.8352 53.2631 17.2555C52.8526 17.666 52.3981 17.8712 51.8997 17.8712C51.323 17.8712 50.8832 17.7002 50.5802 17.3581C50.2773 17.016 50.1258 16.4443 50.1258 15.6428C50.1258 15.291 50.1502 14.9196 50.1991 14.5286C50.2479 14.1279 50.3017 13.732 50.3603 13.3411C50.4287 12.9404 50.4874 12.5543 50.5363 12.1829C50.5851 11.8017 50.6096 11.4548 50.6096 11.142C50.6096 10.9661 50.5949 10.7902 50.5656 10.6142C50.5363 10.4383 50.4825 10.2819 50.4043 10.1451C50.3359 9.99849 50.2382 9.8861 50.1111 9.80791C49.9938 9.71994 49.8374 9.67596 49.642 9.67596C49.3976 9.67596 49.1631 9.79325 48.9383 10.0278C48.7135 10.2624 48.4984 10.5751 48.2932 10.9661C48.0879 11.357 47.8974 11.8066 47.7214 12.3149C47.5455 12.8133 47.3891 13.3313 47.2523 13.8689C47.1155 14.3967 46.9933 14.9244 46.8858 15.4522C46.7783 15.9702 46.6952 16.4443 46.6365 16.8743L45.5957 16.6984C45.5957 16.6984 45.6201 16.5811 45.669 16.3465C45.7178 16.1022 45.7716 15.7943 45.8302 15.4229C45.8986 15.0417 45.9719 14.6166 46.0501 14.1474C46.1283 13.6685 46.1967 13.1896 46.2554 12.7107C46.3238 12.2318 46.3775 11.7724 46.4166 11.3326C46.4655 10.8928 46.4899 10.5214 46.4899 10.2184C46.4899 9.80791 46.4118 9.47071 46.2554 9.20683C46.099 8.94294 45.8693 8.81099 45.5663 8.81099C45.2829 8.81099 45.0092 8.97226 44.7453 9.29479C44.4912 9.61732 44.2518 10.0425 44.027 10.5703C43.8022 11.0883 43.592 11.6796 43.3966 12.3442C43.2011 12.999 43.0203 13.6636 42.8541 14.338C42.688 15.0026 42.5414 15.6428 42.4143 16.2586C42.2873 16.8743 42.1749 17.4021 42.0771 17.8419L41.0949 17.6073C41.2317 16.9329 41.3539 16.2488 41.4614 15.5548C41.5591 14.9586 41.6471 14.3038 41.7253 13.5903C41.8035 12.8768 41.8425 12.1829 41.8425 11.5085C41.8425 11.0785 41.8328 10.7217 41.8132 10.4383C41.7937 10.1451 41.7546 9.91053 41.6959 9.7346C41.6373 9.55868 41.5542 9.43651 41.4467 9.36809C41.349 9.2899 41.2219 9.25081 41.0655 9.25081C40.8212 9.25081 40.572 9.42673 40.3179 9.77859C40.0637 10.1304 39.8096 10.6875 39.5555 11.4499L38.9837 11.3033Z" fill="black"/>
<path d="M32.5331 17.1528C33.0804 17.1528 33.6033 16.9525 34.1018 16.5518C34.61 16.151 35.0058 15.5695 35.2893 14.8072H35.172C34.566 14.8072 34.004 14.7045 33.486 14.4993C32.9778 14.294 32.5331 14.0106 32.1519 13.649C31.7805 13.2776 31.4873 12.8378 31.2723 12.3295C31.0573 11.8115 30.9498 11.2446 30.9498 10.6289C30.9498 10.2868 30.9937 9.93985 31.0817 9.588C31.1794 9.23615 31.326 8.92339 31.5215 8.64972C31.717 8.36629 31.9711 8.13661 32.2839 7.96068C32.5966 7.78475 32.968 7.69679 33.3981 7.69679C33.7499 7.69679 34.0969 7.77009 34.439 7.9167C34.781 8.05353 35.0889 8.29298 35.3626 8.63506C35.6362 8.97714 35.8562 9.44139 36.0223 10.0278C36.1982 10.6045 36.2862 11.3375 36.2862 12.2269C36.2862 12.5592 36.2715 12.8915 36.2422 13.2238C36.2129 13.5463 36.1591 13.864 36.0809 14.1768C36.4621 14.1083 36.7993 13.9862 37.0925 13.8102C37.3955 13.6343 37.6594 13.4242 37.8842 13.1798C38.1188 12.9257 38.324 12.6423 38.4999 12.3295C38.6759 12.007 38.8371 11.6649 38.9837 11.3033L39.5555 11.4499C39.3503 12.007 39.1108 12.481 38.8371 12.872C38.5732 13.2629 38.2849 13.5903 37.9722 13.8542C37.6692 14.1181 37.3466 14.3234 37.0046 14.47C36.6723 14.6068 36.3253 14.6996 35.9637 14.7485C35.8268 15.2274 35.646 15.677 35.4212 16.0973C35.1964 16.5176 34.9228 16.8841 34.6002 17.1968C34.2777 17.5096 33.9014 17.7588 33.4714 17.9445C33.0511 18.1204 32.5771 18.2084 32.0493 18.2084C31.6095 18.2084 31.1648 18.1204 30.7152 17.9445C30.2754 17.7588 29.8746 17.4803 29.513 17.1089C29.1612 16.7277 28.8728 16.2537 28.648 15.6868C28.433 15.1101 28.3255 14.426 28.3255 13.6343C28.3255 13.1163 28.3842 12.6081 28.5014 12.1096C28.6285 11.6112 28.7995 11.142 29.0146 10.7022C29.2394 10.2526 29.5032 9.83723 29.8062 9.45606C30.1092 9.06511 30.4366 8.72791 30.7885 8.44448L31.0084 8.81099C30.7836 9.01624 30.5686 9.27035 30.3633 9.57334C30.1581 9.87632 29.9724 10.2135 29.8062 10.5849C29.6401 10.9465 29.5081 11.3326 29.4104 11.7431C29.3127 12.1438 29.2638 12.5445 29.2638 12.9453C29.2638 13.7369 29.3615 14.4015 29.557 14.9391C29.7622 15.4767 30.0213 15.9116 30.334 16.2439C30.6468 16.5664 30.9986 16.801 31.3896 16.9476C31.7805 17.0844 32.1617 17.1528 32.5331 17.1528ZM33.3687 8.26855C33.1049 8.26855 32.8605 8.32719 32.6357 8.44448C32.4109 8.55199 32.2154 8.70348 32.0493 8.89895C31.8831 9.09443 31.7512 9.329 31.6535 9.60266C31.5557 9.87632 31.5069 10.1793 31.5069 10.5116C31.5069 11.0883 31.6046 11.6063 31.8001 12.0656C31.9955 12.525 32.2594 12.9159 32.5917 13.2385C32.9338 13.561 33.3297 13.8102 33.7792 13.9862C34.2288 14.1523 34.7126 14.2354 35.2306 14.2354H35.5092C35.5874 13.9324 35.6411 13.6148 35.6705 13.2825C35.6998 12.9502 35.7144 12.5885 35.7144 12.1976C35.6949 11.445 35.6167 10.8195 35.4799 10.321C35.3528 9.8128 35.1867 9.40719 34.9814 9.1042C34.7762 8.80122 34.5318 8.5862 34.2484 8.45914C33.9747 8.33208 33.6815 8.26855 33.3687 8.26855Z" fill="black"/>
<path d="M22.6226 1.93519C22.6226 2.55094 22.5151 3.23998 22.3 4.00233C22.0948 4.76468 21.8113 5.59544 21.4497 6.49463C21.0881 7.39381 20.6629 8.3614 20.1743 9.39741C19.6953 10.4237 19.1822 11.5085 18.6349 12.6521C18.586 13.1212 18.542 13.5952 18.5029 14.0741C18.4736 14.5433 18.4443 15.0173 18.415 15.4962C18.542 15.1737 18.6984 14.8023 18.8841 14.382C19.0796 13.952 19.2946 13.5121 19.5292 13.0626C19.7735 12.6032 20.0374 12.1536 20.3209 11.7138C20.6043 11.274 20.9024 10.883 21.2152 10.5409C21.5377 10.1891 21.8749 9.90565 22.2267 9.69063C22.5884 9.4756 22.9598 9.36809 23.3409 9.36809C23.6048 9.36809 23.8443 9.41696 24.0593 9.5147C24.2743 9.61244 24.4551 9.74927 24.6017 9.92519C24.7581 10.1011 24.8754 10.3064 24.9536 10.5409C25.0416 10.7755 25.0855 11.0296 25.0855 11.3033C25.0855 11.6551 25.0367 12.0363 24.9389 12.4468C24.851 12.8475 24.7483 13.258 24.6311 13.6783C24.5138 14.0986 24.4063 14.5188 24.3085 14.9391C24.2206 15.3594 24.1766 15.7552 24.1766 16.1266C24.1766 16.4296 24.2499 16.6886 24.3965 16.9036C24.5431 17.1089 24.8119 17.2115 25.2028 17.2115C25.4765 17.2115 25.7453 17.0991 26.0092 16.8743C26.273 16.6495 26.5272 16.3612 26.7715 16.0093C27.0158 15.6477 27.2406 15.247 27.4459 14.8072C27.6609 14.3576 27.8564 13.9129 28.0323 13.473C28.218 13.0332 28.3793 12.6227 28.5161 12.2416C28.6627 11.8506 28.78 11.5379 28.868 11.3033L29.4397 11.4499C29.2736 11.8897 29.1025 12.354 28.9266 12.8426C28.7507 13.3313 28.5601 13.82 28.3548 14.3087C28.1594 14.7876 27.9443 15.247 27.7098 15.6868C27.4752 16.1266 27.2162 16.5176 26.9328 16.8596C26.6591 17.1919 26.3561 17.4607 26.0238 17.666C25.6915 17.8614 25.3201 17.9592 24.9096 17.9592C24.5382 17.9592 24.2303 17.9054 23.986 17.7979C23.7417 17.6904 23.5462 17.5438 23.3996 17.3581C23.2627 17.1724 23.165 16.9525 23.1064 16.6984C23.0477 16.4345 23.0184 16.1462 23.0184 15.8334C23.0184 15.5011 23.0673 15.1248 23.165 14.7045C23.2627 14.2745 23.3703 13.8347 23.4875 13.3851C23.6146 12.9257 23.727 12.4712 23.8247 12.0217C23.9225 11.5623 23.9713 11.142 23.9713 10.7608C23.9713 10.5458 23.9176 10.3552 23.8101 10.1891C23.7123 10.0229 23.5364 9.93985 23.2823 9.93985C22.8816 9.93985 22.4955 10.0865 22.1241 10.3797C21.7527 10.6631 21.4009 11.0345 21.0685 11.4939C20.7362 11.9532 20.4235 12.4712 20.1303 13.0479C19.8371 13.6245 19.5683 14.2012 19.3239 14.7778C19.0796 15.3447 18.8597 15.8872 18.6642 16.4052C18.4785 16.9232 18.3172 17.3532 18.1804 17.6953L17.6087 17.6073C17.6087 17.5585 17.6038 17.4949 17.594 17.4167C17.594 17.3288 17.594 17.2115 17.594 17.0649C17.594 16.9183 17.5891 16.7375 17.5793 16.5224C17.5793 16.2976 17.5793 16.0289 17.5793 15.7161C17.5793 14.7974 17.6038 13.5854 17.6526 12.0803C17.7015 10.5751 17.8188 8.7719 18.0045 6.67055C18.0827 5.64431 18.2 4.76957 18.3563 4.04631C18.5127 3.31328 18.6886 2.70243 18.8841 2.21374C19.0796 1.71528 19.2848 1.31945 19.4999 1.02624C19.7247 0.733028 19.9397 0.513119 20.1449 0.366514C20.3502 0.210135 20.5408 0.112398 20.7167 0.0733028C20.8926 0.0244343 21.0392 0 21.1565 0C21.6061 0 21.9628 0.175927 22.2267 0.52778C22.4906 0.879633 22.6226 1.34877 22.6226 1.93519ZM21.1858 0.601083C20.9317 0.601083 20.702 0.728141 20.4968 0.982257C20.3013 1.2266 20.1205 1.57845 19.9543 2.03782C19.798 2.48741 19.6611 3.02985 19.5438 3.66514C19.4266 4.30043 19.3191 5.00902 19.2213 5.79092C19.1236 6.56304 19.0356 7.39869 18.9574 8.29787C18.889 9.18728 18.8206 10.1158 18.7522 11.0834C19.2115 10.2037 19.6367 9.33389 20.0276 8.4738C20.4284 7.60394 20.7753 6.77318 21.0685 5.98151C21.3618 5.18984 21.5914 4.45192 21.7576 3.76776C21.9335 3.07383 22.0215 2.46297 22.0215 1.93519C22.0215 1.77881 22.0068 1.62243 21.9775 1.46606C21.958 1.2999 21.914 1.1533 21.8456 1.02624C21.7869 0.899181 21.7038 0.796557 21.5963 0.718367C21.4888 0.640177 21.352 0.601083 21.1858 0.601083Z" fill="black"/>
</g>
<defs>
<clipPath id="clip0_1_101">
<rect width="107" height="46" fill="white"/>
</clipPath>
</defs>
</svg>
